<!DOCTYPE svg PUBLIC "-//W3C//DTD SVG 1.1//EN" "http://www.w3.org/Graphics/SVG/1.1/DTD/svg11.dtd">

<!-- Uploaded to: SVG Repo, www.svgrepo.com, Transformed by: SVG Repo Mixer Tools -->
<svg fill="#ffffff" version="1.1" baseProfile="tiny" id="Layer_1" xmlns:x="&amp;ns_extend;" xmlns:i="&amp;ns_ai;" xmlns:graph="&amp;ns_graphs;" xmlns="http://www.w3.org/2000/svg" xmlns:xlink="http://www.w3.org/1999/xlink" xmlns:a="http://ns.adobe.com/AdobeSVGViewerExtensions/3.0/" width="64px" height="64px" viewBox="-10.5 -10.5 63.00 63.00" xml:space="preserve" stroke="#ffffff" transform="matrix(-1, 0, 0, -1, 0, 0)rotate(-45)">

<g id="SVGRepo_bgCarrier" stroke-width="0">

<rect x="-10.5" y="-10.5" width="63.00" height="63.00" rx="31.5" fill="#c5c8f23a" strokewidth="0"/>

</g>

<g id="SVGRepo_tracerCarrier" stroke-linecap="round" stroke-linejoin="round"/>

<g id="SVGRepo_iconCarrier"> <path d="M21.049,14.741c3.58,0.43,8.219,4.52,8.6,8.28c0,0,9.449-9.471,9.439-9.5c1.939-1.94,1.87-2.75-0.15-4.561l-4.08-3.68 c-1.948-1.76-2.698-1.69-4.528,0.13L21.049,14.741z M25.999,23.062c-0.3-1.351-2.929-4.512-5.759-4.98 c-7.1-1.83-13.89,5.88-13.49,11.491c0.641,4.581-5.35,5.22-6.25,5.43c5.92,2.062,8.439,2.541,13.919,1.38 C19.199,35.374,28.449,30.673,25.999,23.062z"/> </g>

</svg>