<!DOCTYPE svg PUBLIC "-//W3C//DTD SVG 1.1//EN" "http://www.w3.org/Graphics/SVG/1.1/DTD/svg11.dtd">
<!-- Uploaded to: SVG Repo, www.svgrepo.com, Transformed by: SVG Repo Mixer Tools -->
<svg version="1.1" id="Layer_1" xmlns="http://www.w3.org/2000/svg" xmlns:xlink="http://www.w3.org/1999/xlink" viewBox="0 0 512 512" xml:space="preserve" width="800px" height="800px" fill="#000000">
<g id="SVGRepo_bgCarrier" stroke-width="0"/>
<g id="SVGRepo_tracerCarrier" stroke-linecap="round" stroke-linejoin="round"/>
<g id="SVGRepo_iconCarrier"> <circle style="fill:#fcfcfc;" cx="256" cy="256" r="256"/> <path style="fill:#c2c1c1;" d="M336.144,456H175.856c-17.032,0-30.96-13.936-30.96-30.96V86.96c0-17.032,13.936-30.96,30.96-30.96 h160.288c17.032,0,30.96,13.936,30.96,30.96v338.08C367.104,442.064,353.176,456,336.144,456z"/> <rect x="159.552" y="87.568" style="fill:#f0f0f0;" width="192.88" height="315.44"/> <g> <path style="fill:#CCCCCC;" d="M284.928,75.08h-39.48c-1.776,0-3.224-1.448-3.224-3.224l0,0c0-1.776,1.448-3.224,3.224-3.224h39.48 c1.776,0,3.224,1.448,3.224,3.224l0,0C288.152,73.632,286.704,75.08,284.928,75.08z"/> <circle style="fill:#CCCCCC;" cx="227.072" cy="71.856" r="3.224"/> <path style="fill:#CCCCCC;" d="M256,445.168c-8.648,0-15.688-7.04-15.688-15.696c0-8.648,7.04-15.688,15.688-15.688 s15.688,7.04,15.688,15.688C271.688,438.128,264.648,445.168,256,445.168z M256,417.784c-6.448,0-11.688,5.24-11.688,11.688 s5.24,11.696,11.688,11.696s11.688-5.248,11.688-11.696S262.448,417.784,256,417.784z"/> </g> <rect x="159.552" y="87.568" style="fill:#fcfcfc;" width="192.88" height="157.704"/> <g> <rect x="192.96" y="308.448" style="fill:#c2c1c1;" width="126.112" height="4.6"/> <rect x="192.96" y="332.2" style="fill:#c2c1c1;" width="126.112" height="4.6"/> <circle style="fill:#c2c1c1;" cx="256" cy="143.208" r="22.544"/> <path style="fill:#c2c1c1;" d="M294.896,215.744c0,0,0,1.056,0-19.96S271.96,174.4,271.96,174.4h-31.928 c0,0-22.928,0.256-22.928,21.392c0,21.016,0,19.96,0,19.96h77.792V215.744z"/> </g> </g>
</svg>