<!DOCTYPE svg PUBLIC "-//W3C//DTD SVG 1.1//EN" "http://www.w3.org/Graphics/SVG/1.1/DTD/svg11.dtd">

<!-- Uploaded to: SVG Repo, www.svgrepo.com, Transformed by: SVG Repo Mixer Tools -->
<svg fill="#000000" version="1.1" id="Capa_1" xmlns="http://www.w3.org/2000/svg" xmlns:xlink="http://www.w3.org/1999/xlink" width="24px" height="24px" viewBox="-4.57 -4.57 54.82 54.82" xml:space="preserve" stroke="#000000" stroke-width="0.00045676000000000007">

<g id="SVGRepo_bgCarrier" stroke-width="0"/>

<g id="SVGRepo_tracerCarrier" stroke-linecap="round" stroke-linejoin="round"/>

<g id="SVGRepo_iconCarrier"> <g> <g> <path d="M40.611,5.342H5.054C2.26,5.342,0,7.615,0,10.391v24.923c0,2.776,2.26,5.021,5.054,5.021h35.558 c2.793,0,5.064-2.244,5.064-5.021V10.391C45.676,7.615,43.404,5.342,40.611,5.342z M42.564,35.312 c0,1.073-0.861,1.966-1.955,1.966H5.054c-1.093,0-2.001-0.893-2.001-1.966V10.391c0-1.073,0.909-1.937,2.001-1.937h35.558 c1.092,0,1.953,0.864,1.953,1.937V35.312L42.564,35.312z"/> <path d="M6.399,12.432c-0.853,0-1.526,0.691-1.526,1.543v17.754c0,0.854,0.673,1.543,1.526,1.543s1.526-0.691,1.526-1.543V13.976 C7.926,13.123,7.252,12.432,6.399,12.432z"/> <path d="M12.065,12.432c-1.421,0-2.554,1.151-2.554,2.573v9.455c0,1.422,1.133,2.574,2.554,2.574c1.421,0,2.554-1.152,2.554-2.574 v-9.455C14.618,13.583,13.486,12.432,12.065,12.432z"/> <path d="M17.7,12.432c-0.853,0-1.555,0.691-1.555,1.543v11.514c0,0.854,0.703,1.543,1.555,1.543c0.853,0,1.556-0.69,1.556-1.543 V13.976C19.257,13.123,18.553,12.432,17.7,12.432z"/> <path d="M23.366,12.431c-1.42,0-2.583,1.152-2.583,2.573v9.456c0,1.422,1.163,2.574,2.583,2.574c1.421,0,2.583-1.152,2.583-2.574 v-9.456C25.949,13.583,24.787,12.431,23.366,12.431z"/> <path d="M29.002,12.432c-0.854,0-1.526,0.691-1.526,1.543v11.514c0,0.854,0.675,1.543,1.526,1.543c0.854,0,1.525-0.69,1.525-1.543 V13.976C30.529,13.123,29.855,12.432,29.002,12.432z"/> <path d="M34.638,12.432c-1.421,0-2.583,1.151-2.583,2.573v9.455c0,1.422,1.163,2.574,2.583,2.574c1.421,0,2.583-1.152,2.583-2.574 v-9.455C37.222,13.583,36.06,12.432,34.638,12.432z"/> <path d="M39.775,12.432c-0.567,0-1.026,0.46-1.026,1.029v18.784c0,0.567,0.459,1.028,1.026,1.028c0.568,0,1.027-0.461,1.027-1.028 V13.46C40.803,12.893,40.344,12.432,39.775,12.432z"/> <path d="M37.222,31.812c0,0.842-0.683,1.524-1.524,1.524H11.159c-0.842,0-1.525-0.683-1.525-1.524v-1.949 c0-0.842,0.683-1.524,1.525-1.524h24.537c0.842,0,1.525,0.683,1.525,1.524L37.222,31.812L37.222,31.812z"/> </g> </g> </g>

</svg>