<!DOCTYPE svg PUBLIC "-//W3C//DTD SVG 1.1//EN" "http://www.w3.org/Graphics/SVG/1.1/DTD/svg11.dtd">

<!-- Uploaded to: SVG Repo, www.svgrepo.com, Transformed by: SVG Repo Mixer Tools -->
<svg fill="#000000" width="36px" height="36px" viewBox="0 0 24 24" id="link" data-name="Line Color" xmlns="http://www.w3.org/2000/svg" class="icon line-color" transform="matrix(-1, 0, 0, 1, 0, 0)">

<g id="SVGRepo_bgCarrier" stroke-width="0"/>

<g id="SVGRepo_tracerCarrier" stroke-linecap="round" stroke-linejoin="round"/>

<g id="SVGRepo_iconCarrier">

<path id="primary" d="M4.5,19.5h0a3,3,0,0,1,0-4.24L6.76,13A3,3,0,0,1,11,13h0a3,3,0,0,1,0,4.24L8.74,19.5A3,3,0,0,1,4.5,19.5ZM17.24,11,20,8.24A3,3,0,0,0,20,4h0a3,3,0,0,0-4.24,0L13,6.76A3,3,0,0,0,13,11h0A3,3,0,0,0,17.24,11Z" style="fill: none; stroke: #000000; stroke-linecap: round; stroke-linejoin: round; stroke-width: 2;"/>

<line id="secondary" x1="10" y1="14" x2="14" y2="10" style="fill: none; stroke: #2ca9bc; stroke-linecap: round; stroke-linejoin: round; stroke-width: 2;"/>

</g>

</svg>